<?xml version="1.0" standalone="no" ?>
<!DOCTYPE svg PUBLIC "-//W3C//DTD SVG 1.1//EN" "http://www.w3.org/Graphics/SVG/1.1/DTD/svg11.dtd">
<svg width="1000px" height="1000px" xmlns="http://www.w3.org/2000/svg" version="1.1" >
	<circle cx="-0.144775" cy="513.95" r="0.5" fill="rgb(255,255,255)" stroke-width="1" stroke="rgb(69,0,0)" />
	<circle cx="25.6299" cy="556.233" r="0.5" fill="rgb(255,255,255)" stroke-width="1" stroke="rgb(69,0,0)" />
	<circle cx="26.4987" cy="546.117" r="0.5" fill="rgb(255,255,255)" stroke-width="1" stroke="rgb(69,0,0)" />
	<circle cx="29.1051" cy="507.326" r="0.5" fill="rgb(255,255,255)" stroke-width="1" stroke="rgb(69,0,0)" />
	<circle cx="31.7116" cy="522.559" r="0.5" fill="rgb(255,255,255)" stroke-width="1" stroke="rgb(69,0,0)" />
	<circle cx="35.1868" cy="579.865" r="0.5" fill="rgb(255,255,255)" stroke-width="1" stroke="rgb(69,0,0)" />
	<circle cx="36.0556" cy="531.689" r="0.5" fill="rgb(255,255,255)" stroke-width="1" stroke="rgb(69,0,0)" />
	<circle cx="40.6893" cy="555.76" r="0.5" fill="rgb(255,255,255)" stroke-width="1" stroke="rgb(69,0,0)" />
	<circle cx="42.1373" cy="544.694" r="0.5" fill="rgb(255,255,255)" stroke-width="1" stroke="rgb(69,0,0)" />
	<circle cx="43.0061" cy="503.779" r="0.5" fill="rgb(255,255,255)" stroke-width="1" stroke="rgb(69,0,0)" />
	<circle cx="44.7437" cy="562.842" r="0.5" fill="rgb(255,255,255)" stroke-width="1" stroke="rgb(69,0,0)" />
	<circle cx="45.3229" cy="519.408" r="0.5" fill="rgb(255,255,255)" stroke-width="1" stroke="rgb(69,0,0)" />
	<circle cx="47.9294" cy="555.164" r="0.5" fill="rgb(255,255,255)" stroke-width="1" stroke="rgb(69,0,0)" />
	<circle cx="48.5085" cy="510.482" r="0.5" fill="rgb(255,255,255)" stroke-width="1" stroke="rgb(69,0,0)" />
	<circle cx="54.3006" cy="532.945" r="0.5" fill="rgb(255,255,255)" stroke-width="1" stroke="rgb(69,0,0)" />
	<circle cx="57.1967" cy="541.121" r="0.5" fill="rgb(255,255,255)" stroke-width="1" stroke="rgb(69,0,0)" />
	<circle cx="58.0655" cy="548.255" r="0.5" fill="rgb(255,255,255)" stroke-width="1" stroke="rgb(69,0,0)" />
	<circle cx="58.6447" cy="562.048" r="0.5" fill="rgb(255,255,255)" stroke-width="1" stroke="rgb(69,0,0)" />
	<circle cx="60.0927" cy="541.716" r="0.5" fill="rgb(255,255,255)" stroke-width="1" stroke="rgb(69,0,0)" />
	<circle cx="64.7263" cy="547.022" r="0.5" fill="rgb(255,255,255)" stroke-width="1" stroke="rgb(69,0,0)" />
	<circle cx="66.464" cy="545.566" r="0.5" fill="rgb(255,255,255)" stroke-width="1" stroke="rgb(69,0,0)" />
	<circle cx="67.3328" cy="511.421" r="0.5" fill="rgb(255,255,255)" stroke-width="1" stroke="rgb(69,0,0)" />
	<circle cx="69.9392" cy="515.604" r="0.5" fill="rgb(255,255,255)" stroke-width="1" stroke="rgb(69,0,0)" />
	<circle cx="70.5184" cy="511.042" r="0.5" fill="rgb(255,255,255)" stroke-width="1" stroke="rgb(69,0,0)" />
	<circle cx="71.9664" cy="587.597" r="0.5" fill="rgb(255,255,255)" stroke-width="1" stroke="rgb(69,0,0)" />
	<circle cx="73.4144" cy="521.473" r="0.5" fill="rgb(255,255,255)" stroke-width="1" stroke="rgb(69,0,0)" />
	<circle cx="74.2832" cy="556.76" r="0.5" fill="rgb(255,255,255)" stroke-width="1" stroke="rgb(69,0,0)" />
	<circle cx="74.8625" cy="559.344" r="0.5" fill="rgb(255,255,255)" stroke-width="1" stroke="rgb(69,0,0)" />
	<circle cx="75.7313" cy="542.654" r="0.5" fill="rgb(255,255,255)" stroke-width="1" stroke="rgb(69,0,0)" />
	<circle cx="76.3105" cy="520.684" r="0.5" fill="rgb(255,255,255)" stroke-width="1" stroke="rgb(69,0,0)" />
	<circle cx="78.6273" cy="518.195" r="0.5" fill="rgb(255,255,255)" stroke-width="1" stroke="rgb(69,0,0)" />
	<circle cx="79.2065" cy="568.921" r="0.5" fill="rgb(255,255,255)" stroke-width="1" stroke="rgb(69,0,0)" />
	<circle cx="81.8129" cy="561.407" r="0.5" fill="rgb(255,255,255)" stroke-width="1" stroke="rgb(69,0,0)" />
	<circle cx="82.9713" cy="505.8" r="0.5" fill="rgb(255,255,255)" stroke-width="1" stroke="rgb(69,0,0)" />
	<circle cx="83.8401" cy="537.018" r="0.5" fill="rgb(255,255,255)" stroke-width="1" stroke="rgb(69,0,0)" />
	<circle cx="85.8674" cy="561.157" r="0.5" fill="rgb(255,255,255)" stroke-width="1" stroke="rgb(69,0,0)" />
	<circle cx="86.4466" cy="574.045" r="0.5" fill="rgb(255,255,255)" stroke-width="1" stroke="rgb(69,0,0)" />
	<circle cx="87.3154" cy="503.924" r="0.5" fill="rgb(255,255,255)" stroke-width="1" stroke="rgb(69,0,0)" />
	<circle cx="90.7906" cy="506.529" r="0.5" fill="rgb(255,255,255)" stroke-width="1" stroke="rgb(69,0,0)" />
	<circle cx="91.6595" cy="535.077" r="0.5" fill="rgb(255,255,255)" stroke-width="1" stroke="rgb(69,0,0)" />
	<circle cx="93.9763" cy="581.096" r="0.5" fill="rgb(255,255,255)" stroke-width="1" stroke="rgb(69,0,0)" />
	<circle cx="94.5555" cy="541.592" r="0.5" fill="rgb(255,255,255)" stroke-width="1" stroke="rgb(69,0,0)" />
	<circle cx="95.4243" cy="523.213" r="0.5" fill="rgb(255,255,255)" stroke-width="1" stroke="rgb(69,0,0)" />
	<circle cx="98.6099" cy="518.727" r="0.5" fill="rgb(255,255,255)" stroke-width="1" stroke="rgb(69,0,0)" />
	<circle cx="99.1891" cy="518.125" r="0.5" fill="rgb(255,255,255)" stroke-width="1" stroke="rgb(69,0,0)" />
	<circle cx="99.7683" cy="584.835" r="0.5" fill="rgb(255,255,255)" stroke-width="1" stroke="rgb(69,0,0)" />
	<circle cx="104.112" cy="509.726" r="0.5" fill="rgb(255,255,255)" stroke-width="1" stroke="rgb(69,0,0)" />
	<circle cx="106.14" cy="506.853" r="0.5" fill="rgb(255,255,255)" stroke-width="1" stroke="rgb(69,0,0)" />
	<circle cx="107.008" cy="513.551" r="0.5" fill="rgb(255,255,255)" stroke-width="1" stroke="rgb(69,0,0)" />
	<circle cx="107.588" cy="501.267" r="0.5" fill="rgb(255,255,255)" stroke-width="1" stroke="rgb(69,0,0)" />
	<circle cx="108.456" cy="525.361" r="0.5" fill="rgb(255,255,255)" stroke-width="1" stroke="rgb(69,0,0)" />
	<circle cx="110.484" cy="509.277" r="0.5" fill="rgb(255,255,255)" stroke-width="1" stroke="rgb(69,0,0)" />
	<circle cx="113.959" cy="531.418" r="0.5" fill="rgb(255,255,255)" stroke-width="1" stroke="rgb(69,0,0)" />
	<circle cx="114.828" cy="581.618" r="0.5" fill="rgb(255,255,255)" stroke-width="1" stroke="rgb(69,0,0)" />
	<circle cx="116.565" cy="502.628" r="0.5" fill="rgb(255,255,255)" stroke-width="1" stroke="rgb(69,0,0)" />
	<circle cx="117.145" cy="576.482" r="0.5" fill="rgb(255,255,255)" stroke-width="1" stroke="rgb(69,0,0)" />
	<circle cx="120.041" cy="542.609" r="0.5" fill="rgb(255,255,255)" stroke-width="1" stroke="rgb(69,0,0)" />
	<circle cx="120.909" cy="544.061" r="0.5" fill="rgb(255,255,255)" stroke-width="1" stroke="rgb(69,0,0)" />
	<circle cx="122.357" cy="498.76" r="0.5" fill="rgb(255,255,255)" stroke-width="1" stroke="rgb(69,0,0)" />
	<circle cx="122.937" cy="581.005" r="0.5" fill="rgb(255,255,255)" stroke-width="1" stroke="rgb(69,0,0)" />
	<circle cx="123.805" cy="513.292" r="0.5" fill="rgb(255,255,255)" stroke-width="1" stroke="rgb(69,0,0)" />
	<circle cx="125.253" cy="565.711" r="0.5" fill="rgb(255,255,255)" stroke-width="1" stroke="rgb(69,0,0)" />
	<circle cx="127.57" cy="561.019" r="0.5" fill="rgb(255,255,255)" stroke-width="1" stroke="rgb(69,0,0)" />
	<circle cx="128.439" cy="555.549" r="0.5" fill="rgb(255,255,255)" stroke-width="1" stroke="rgb(69,0,0)" />
	<circle cx="130.177" cy="518.011" r="0.5" fill="rgb(255,255,255)" stroke-width="1" stroke="rgb(69,0,0)" />
	<circle cx="131.625" cy="583.247" r="0.5" fill="rgb(255,255,255)" stroke-width="1" stroke="rgb(69,0,0)" />
	<rect x="80.9441" y="538.125" width="5" height="5" fill="rgb(255,255,255)" stroke-width="2" stroke="rgb(69,0,0)" />
	<circle cx="27.3675" cy="480.873" r="0.5" fill="rgb(255,255,255)" stroke-width="1" stroke="rgb(139,162,208)" />
	<circle cx="28.2363" cy="442.925" r="0.5" fill="rgb(255,255,255)" stroke-width="1" stroke="rgb(139,162,208)" />
	<circle cx="30.2635" cy="438.924" r="0.5" fill="rgb(255,255,255)" stroke-width="1" stroke="rgb(139,162,208)" />
	<circle cx="31.1324" cy="426.248" r="0.5" fill="rgb(255,255,255)" stroke-width="1" stroke="rgb(139,162,208)" />
	<circle cx="32.5804" cy="464.778" r="0.5" fill="rgb(255,255,255)" stroke-width="1" stroke="rgb(139,162,208)" />
	<circle cx="33.4492" cy="435.744" r="0.5" fill="rgb(255,255,255)" stroke-width="1" stroke="rgb(139,162,208)" />
	<circle cx="34.318" cy="493.495" r="0.5" fill="rgb(255,255,255)" stroke-width="1" stroke="rgb(139,162,208)" />
	<circle cx="36.9244" cy="471.83" r="0.5" fill="rgb(255,255,255)" stroke-width="1" stroke="rgb(139,162,208)" />
	<circle cx="39.2412" cy="473.138" r="0.5" fill="rgb(255,255,255)" stroke-width="1" stroke="rgb(139,162,208)" />
	<circle cx="40.1101" cy="486.955" r="0.5" fill="rgb(255,255,255)" stroke-width="1" stroke="rgb(139,162,208)" />
	<circle cx="41.5581" cy="497.907" r="0.5" fill="rgb(255,255,255)" stroke-width="1" stroke="rgb(139,162,208)" />
	<circle cx="43.8749" cy="493.084" r="0.5" fill="rgb(255,255,255)" stroke-width="1" stroke="rgb(139,162,208)" />
	<circle cx="46.1917" cy="471.823" r="0.5" fill="rgb(255,255,255)" stroke-width="1" stroke="rgb(139,162,208)" />
	<circle cx="47.0605" cy="414.755" r="0.5" fill="rgb(255,255,255)" stroke-width="1" stroke="rgb(139,162,208)" />
	<circle cx="49.9566" cy="455.49" r="0.5" fill="rgb(255,255,255)" stroke-width="1" stroke="rgb(139,162,208)" />
	<circle cx="52.2734" cy="486.556" r="0.5" fill="rgb(255,255,255)" stroke-width="1" stroke="rgb(139,162,208)" />
	<circle cx="54.8798" cy="425.557" r="0.5" fill="rgb(255,255,255)" stroke-width="1" stroke="rgb(139,162,208)" />
	<circle cx="56.3279" cy="496.249" r="0.5" fill="rgb(255,255,255)" stroke-width="1" stroke="rgb(139,162,208)" />
	<circle cx="59.5135" cy="423.619" r="0.5" fill="rgb(255,255,255)" stroke-width="1" stroke="rgb(139,162,208)" />
	<circle cx="61.5407" cy="420.572" r="0.5" fill="rgb(255,255,255)" stroke-width="1" stroke="rgb(139,162,208)" />
	<circle cx="62.4095" cy="428.464" r="0.5" fill="rgb(255,255,255)" stroke-width="1" stroke="rgb(139,162,208)" />
	<circle cx="62.9887" cy="458.425" r="0.5" fill="rgb(255,255,255)" stroke-width="1" stroke="rgb(139,162,208)" />
	<circle cx="63.8575" cy="458.283" r="0.5" fill="rgb(255,255,255)" stroke-width="1" stroke="rgb(139,162,208)" />
	<circle cx="68.7808" cy="446.525" r="0.5" fill="rgb(255,255,255)" stroke-width="1" stroke="rgb(139,162,208)" />
	<circle cx="71.3872" cy="412.784" r="0.5" fill="rgb(255,255,255)" stroke-width="1" stroke="rgb(139,162,208)" />
	<circle cx="72.8352" cy="488.927" r="0.5" fill="rgb(255,255,255)" stroke-width="1" stroke="rgb(139,162,208)" />
	<circle cx="76.8897" cy="497.858" r="0.5" fill="rgb(255,255,255)" stroke-width="1" stroke="rgb(139,162,208)" />
	<circle cx="79.7857" cy="491.94" r="0.5" fill="rgb(255,255,255)" stroke-width="1" stroke="rgb(139,162,208)" />
	<circle cx="82.3922" cy="491.061" r="0.5" fill="rgb(255,255,255)" stroke-width="1" stroke="rgb(139,162,208)" />
	<circle cx="84.4194" cy="422.093" r="0.5" fill="rgb(255,255,255)" stroke-width="1" stroke="rgb(139,162,208)" />
	<circle cx="84.9986" cy="491.055" r="0.5" fill="rgb(255,255,255)" stroke-width="1" stroke="rgb(139,162,208)" />
	<circle cx="87.8946" cy="431.489" r="0.5" fill="rgb(255,255,255)" stroke-width="1" stroke="rgb(139,162,208)" />
	<circle cx="88.7634" cy="433.589" r="0.5" fill="rgb(255,255,255)" stroke-width="1" stroke="rgb(139,162,208)" />
	<circle cx="90.2114" cy="455.281" r="0.5" fill="rgb(255,255,255)" stroke-width="1" stroke="rgb(139,162,208)" />
	<circle cx="92.5283" cy="492.032" r="0.5" fill="rgb(255,255,255)" stroke-width="1" stroke="rgb(139,162,208)" />
	<circle cx="96.0035" cy="441.355" r="0.5" fill="rgb(255,255,255)" stroke-width="1" stroke="rgb(139,162,208)" />
	<circle cx="97.1619" cy="481.601" r="0.5" fill="rgb(255,255,255)" stroke-width="1" stroke="rgb(139,162,208)" />
	<circle cx="97.7411" cy="450.561" r="0.5" fill="rgb(255,255,255)" stroke-width="1" stroke="rgb(139,162,208)" />
	<circle cx="100.637" cy="455.76" r="0.5" fill="rgb(255,255,255)" stroke-width="1" stroke="rgb(139,162,208)" />
	<circle cx="101.796" cy="464.507" r="0.5" fill="rgb(255,255,255)" stroke-width="1" stroke="rgb(139,162,208)" />
	<circle cx="102.664" cy="412.403" r="0.5" fill="rgb(255,255,255)" stroke-width="1" stroke="rgb(139,162,208)" />
	<circle cx="103.533" cy="444.883" r="0.5" fill="rgb(255,255,255)" stroke-width="1" stroke="rgb(139,162,208)" />
	<circle cx="104.981" cy="467.661" r="0.5" fill="rgb(255,255,255)" stroke-width="1" stroke="rgb(139,162,208)" />
	<circle cx="109.036" cy="479.434" r="0.5" fill="rgb(255,255,255)" stroke-width="1" stroke="rgb(139,162,208)" />
	<circle cx="109.904" cy="458.106" r="0.5" fill="rgb(255,255,255)" stroke-width="1" stroke="rgb(139,162,208)" />
	<circle cx="111.352" cy="414.383" r="0.5" fill="rgb(255,255,255)" stroke-width="1" stroke="rgb(139,162,208)" />
	<circle cx="111.932" cy="486.687" r="0.5" fill="rgb(255,255,255)" stroke-width="1" stroke="rgb(139,162,208)" />
	<circle cx="113.38" cy="474.864" r="0.5" fill="rgb(255,255,255)" stroke-width="1" stroke="rgb(139,162,208)" />
	<circle cx="115.697" cy="417.8" r="0.5" fill="rgb(255,255,255)" stroke-width="1" stroke="rgb(139,162,208)" />
	<circle cx="118.593" cy="465.832" r="0.5" fill="rgb(255,255,255)" stroke-width="1" stroke="rgb(139,162,208)" />
	<circle cx="119.461" cy="467.986" r="0.5" fill="rgb(255,255,255)" stroke-width="1" stroke="rgb(139,162,208)" />
	<circle cx="121.489" cy="493.112" r="0.5" fill="rgb(255,255,255)" stroke-width="1" stroke="rgb(139,162,208)" />
	<circle cx="125.833" cy="489.594" r="0.5" fill="rgb(255,255,255)" stroke-width="1" stroke="rgb(139,162,208)" />
	<circle cx="126.701" cy="445.945" r="0.5" fill="rgb(255,255,255)" stroke-width="1" stroke="rgb(139,162,208)" />
	<circle cx="129.308" cy="444.251" r="0.5" fill="rgb(255,255,255)" stroke-width="1" stroke="rgb(139,162,208)" />
	<circle cx="132.493" cy="474.586" r="0.5" fill="rgb(255,255,255)" stroke-width="1" stroke="rgb(139,162,208)" />
	<rect x="78.3377" y="459.494" width="5" height="5" fill="rgb(255,255,255)" stroke-width="2" stroke="rgb(139,162,208)" />
	<circle cx="840.284" cy="544.858" r="0.5" fill="rgb(255,255,255)" stroke-width="1" stroke="rgb(208,69,162)" />
	<circle cx="841.153" cy="416.295" r="0.5" fill="rgb(255,255,255)" stroke-width="1" stroke="rgb(208,69,162)" />
	<circle cx="842.601" cy="524.789" r="0.5" fill="rgb(255,255,255)" stroke-width="1" stroke="rgb(208,69,162)" />
	<circle cx="843.759" cy="499.923" r="0.5" fill="rgb(255,255,255)" stroke-width="1" stroke="rgb(208,69,162)" />
	<circle cx="844.338" cy="474.997" r="0.5" fill="rgb(255,255,255)" stroke-width="1" stroke="rgb(208,69,162)" />
	<circle cx="846.365" cy="560.742" r="0.5" fill="rgb(255,255,255)" stroke-width="1" stroke="rgb(208,69,162)" />
	<circle cx="847.813" cy="476.666" r="0.5" fill="rgb(255,255,255)" stroke-width="1" stroke="rgb(208,69,162)" />
	<circle cx="848.682" cy="532.484" r="0.5" fill="rgb(255,255,255)" stroke-width="1" stroke="rgb(208,69,162)" />
	<circle cx="849.841" cy="460.813" r="0.5" fill="rgb(255,255,255)" stroke-width="1" stroke="rgb(208,69,162)" />
	<circle cx="850.709" cy="484.763" r="0.5" fill="rgb(255,255,255)" stroke-width="1" stroke="rgb(208,69,162)" />
	<circle cx="851.578" cy="541.206" r="0.5" fill="rgb(255,255,255)" stroke-width="1" stroke="rgb(208,69,162)" />
	<circle cx="852.158" cy="550.087" r="0.5" fill="rgb(255,255,255)" stroke-width="1" stroke="rgb(208,69,162)" />
	<circle cx="871.561" cy="558.105" r="0.5" fill="rgb(255,255,255)" stroke-width="1" stroke="rgb(208,69,162)" />
	<circle cx="873.009" cy="543.998" r="0.5" fill="rgb(255,255,255)" stroke-width="1" stroke="rgb(208,69,162)" />
	<circle cx="873.588" cy="475.678" r="0.5" fill="rgb(255,255,255)" stroke-width="1" stroke="rgb(208,69,162)" />
	<circle cx="874.457" cy="541.276" r="0.5" fill="rgb(255,255,255)" stroke-width="1" stroke="rgb(208,69,162)" />
	<circle cx="875.615" cy="487.085" r="0.5" fill="rgb(255,255,255)" stroke-width="1" stroke="rgb(208,69,162)" />
	<circle cx="876.484" cy="517.359" r="0.5" fill="rgb(255,255,255)" stroke-width="1" stroke="rgb(208,69,162)" />
	<circle cx="877.353" cy="472.721" r="0.5" fill="rgb(255,255,255)" stroke-width="1" stroke="rgb(208,69,162)" />
	<circle cx="878.801" cy="586.186" r="0.5" fill="rgb(255,255,255)" stroke-width="1" stroke="rgb(208,69,162)" />
	<circle cx="879.67" cy="486.668" r="0.5" fill="rgb(255,255,255)" stroke-width="1" stroke="rgb(208,69,162)" />
	<circle cx="880.539" cy="486.09" r="0.5" fill="rgb(255,255,255)" stroke-width="1" stroke="rgb(208,69,162)" />
	<circle cx="881.407" cy="490.706" r="0.5" fill="rgb(255,255,255)" stroke-width="1" stroke="rgb(208,69,162)" />
	<circle cx="882.276" cy="587.085" r="0.5" fill="rgb(255,255,255)" stroke-width="1" stroke="rgb(208,69,162)" />
	<circle cx="884.593" cy="554.735" r="0.5" fill="rgb(255,255,255)" stroke-width="1" stroke="rgb(208,69,162)" />
	<circle cx="885.462" cy="555.26" r="0.5" fill="rgb(255,255,255)" stroke-width="1" stroke="rgb(208,69,162)" />
	<circle cx="887.489" cy="519.625" r="0.5" fill="rgb(255,255,255)" stroke-width="1" stroke="rgb(208,69,162)" />
	<circle cx="888.648" cy="518.512" r="0.5" fill="rgb(255,255,255)" stroke-width="1" stroke="rgb(208,69,162)" />
	<circle cx="889.227" cy="513.1" r="0.5" fill="rgb(255,255,255)" stroke-width="1" stroke="rgb(208,69,162)" />
	<circle cx="890.096" cy="496.787" r="0.5" fill="rgb(255,255,255)" stroke-width="1" stroke="rgb(208,69,162)" />
	<circle cx="890.964" cy="534.769" r="0.5" fill="rgb(255,255,255)" stroke-width="1" stroke="rgb(208,69,162)" />
	<circle cx="892.412" cy="535.425" r="0.5" fill="rgb(255,255,255)" stroke-width="1" stroke="rgb(208,69,162)" />
	<circle cx="893.281" cy="502.638" r="0.5" fill="rgb(255,255,255)" stroke-width="1" stroke="rgb(208,69,162)" />
	<circle cx="894.15" cy="564.648" r="0.5" fill="rgb(255,255,255)" stroke-width="1" stroke="rgb(208,69,162)" />
	<circle cx="895.308" cy="505.124" r="0.5" fill="rgb(255,255,255)" stroke-width="1" stroke="rgb(208,69,162)" />
	<circle cx="897.336" cy="540.846" r="0.5" fill="rgb(255,255,255)" stroke-width="1" stroke="rgb(208,69,162)" />
	<circle cx="898.204" cy="572.53" r="0.5" fill="rgb(255,255,255)" stroke-width="1" stroke="rgb(208,69,162)" />
	<circle cx="899.073" cy="475.672" r="0.5" fill="rgb(255,255,255)" stroke-width="1" stroke="rgb(208,69,162)" />
	<circle cx="903.707" cy="530.944" r="0.5" fill="rgb(255,255,255)" stroke-width="1" stroke="rgb(208,69,162)" />
	<circle cx="905.445" cy="514.848" r="0.5" fill="rgb(255,255,255)" stroke-width="1" stroke="rgb(208,69,162)" />
	<circle cx="906.024" cy="519.269" r="0.5" fill="rgb(255,255,255)" stroke-width="1" stroke="rgb(208,69,162)" />
	<rect x="875.326" y="518.422" width="5" height="5" fill="rgb(255,255,255)" stroke-width="2" stroke="rgb(208,69,162)" />
	<circle cx="919.635" cy="538.388" r="0.5" fill="rgb(255,255,255)" stroke-width="1" stroke="rgb(23,231,115)" />
	<circle cx="921.952" cy="574.119" r="0.5" fill="rgb(255,255,255)" stroke-width="1" stroke="rgb(23,231,115)" />
	<circle cx="923.979" cy="514.609" r="0.5" fill="rgb(255,255,255)" stroke-width="1" stroke="rgb(23,231,115)" />
	<circle cx="925.138" cy="503.431" r="0.5" fill="rgb(255,255,255)" stroke-width="1" stroke="rgb(23,231,115)" />
	<circle cx="927.454" cy="497.725" r="0.5" fill="rgb(255,255,255)" stroke-width="1" stroke="rgb(23,231,115)" />
	<circle cx="929.771" cy="540.17" r="0.5" fill="rgb(255,255,255)" stroke-width="1" stroke="rgb(23,231,115)" />
	<circle cx="935.274" cy="495.577" r="0.5" fill="rgb(255,255,255)" stroke-width="1" stroke="rgb(23,231,115)" />
	<circle cx="937.301" cy="530.71" r="0.5" fill="rgb(255,255,255)" stroke-width="1" stroke="rgb(23,231,115)" />
	<circle cx="938.459" cy="513.439" r="0.5" fill="rgb(255,255,255)" stroke-width="1" stroke="rgb(23,231,115)" />
	<circle cx="943.093" cy="511.836" r="0.5" fill="rgb(255,255,255)" stroke-width="1" stroke="rgb(23,231,115)" />
	<circle cx="945.699" cy="506.657" r="0.5" fill="rgb(255,255,255)" stroke-width="1" stroke="rgb(23,231,115)" />
	<circle cx="949.175" cy="583.39" r="0.5" fill="rgb(255,255,255)" stroke-width="1" stroke="rgb(23,231,115)" />
	<circle cx="950.912" cy="555.505" r="0.5" fill="rgb(255,255,255)" stroke-width="1" stroke="rgb(23,231,115)" />
	<circle cx="951.781" cy="534.162" r="0.5" fill="rgb(255,255,255)" stroke-width="1" stroke="rgb(23,231,115)" />
	<circle cx="952.65" cy="495.194" r="0.5" fill="rgb(255,255,255)" stroke-width="1" stroke="rgb(23,231,115)" />
	<circle cx="954.098" cy="555.461" r="0.5" fill="rgb(255,255,255)" stroke-width="1" stroke="rgb(23,231,115)" />
	<circle cx="955.835" cy="531.437" r="0.5" fill="rgb(255,255,255)" stroke-width="1" stroke="rgb(23,231,115)" />
	<circle cx="956.415" cy="529.191" r="0.5" fill="rgb(255,255,255)" stroke-width="1" stroke="rgb(23,231,115)" />
	<circle cx="957.284" cy="489.282" r="0.5" fill="rgb(255,255,255)" stroke-width="1" stroke="rgb(23,231,115)" />
	<circle cx="960.18" cy="492.923" r="0.5" fill="rgb(255,255,255)" stroke-width="1" stroke="rgb(23,231,115)" />
	<circle cx="963.076" cy="578.008" r="0.5" fill="rgb(255,255,255)" stroke-width="1" stroke="rgb(23,231,115)" />
	<circle cx="963.655" cy="538.282" r="0.5" fill="rgb(255,255,255)" stroke-width="1" stroke="rgb(23,231,115)" />
	<circle cx="965.392" cy="494.722" r="0.5" fill="rgb(255,255,255)" stroke-width="1" stroke="rgb(23,231,115)" />
	<circle cx="966.261" cy="506.403" r="0.5" fill="rgb(255,255,255)" stroke-width="1" stroke="rgb(23,231,115)" />
	<circle cx="967.13" cy="524.291" r="0.5" fill="rgb(255,255,255)" stroke-width="1" stroke="rgb(23,231,115)" />
	<circle cx="967.999" cy="546.904" r="0.5" fill="rgb(255,255,255)" stroke-width="1" stroke="rgb(23,231,115)" />
	<circle cx="969.447" cy="556.583" r="0.5" fill="rgb(255,255,255)" stroke-width="1" stroke="rgb(23,231,115)" />
	<circle cx="970.316" cy="546.694" r="0.5" fill="rgb(255,255,255)" stroke-width="1" stroke="rgb(23,231,115)" />
	<circle cx="970.895" cy="531.596" r="0.5" fill="rgb(255,255,255)" stroke-width="1" stroke="rgb(23,231,115)" />
	<circle cx="972.343" cy="509.678" r="0.5" fill="rgb(255,255,255)" stroke-width="1" stroke="rgb(23,231,115)" />
	<circle cx="974.949" cy="500.045" r="0.5" fill="rgb(255,255,255)" stroke-width="1" stroke="rgb(23,231,115)" />
	<circle cx="976.397" cy="546.525" r="0.5" fill="rgb(255,255,255)" stroke-width="1" stroke="rgb(23,231,115)" />
	<circle cx="977.266" cy="536.347" r="0.5" fill="rgb(255,255,255)" stroke-width="1" stroke="rgb(23,231,115)" />
	<circle cx="979.873" cy="580.769" r="0.5" fill="rgb(255,255,255)" stroke-width="1" stroke="rgb(23,231,115)" />
	<circle cx="980.741" cy="554.794" r="0.5" fill="rgb(255,255,255)" stroke-width="1" stroke="rgb(23,231,115)" />
	<circle cx="981.61" cy="523.124" r="0.5" fill="rgb(255,255,255)" stroke-width="1" stroke="rgb(23,231,115)" />
	<circle cx="983.058" cy="554.105" r="0.5" fill="rgb(255,255,255)" stroke-width="1" stroke="rgb(23,231,115)" />
	<circle cx="984.796" cy="500.204" r="0.5" fill="rgb(255,255,255)" stroke-width="1" stroke="rgb(23,231,115)" />
	<circle cx="985.665" cy="552.456" r="0.5" fill="rgb(255,255,255)" stroke-width="1" stroke="rgb(23,231,115)" />
	<circle cx="986.244" cy="490.614" r="0.5" fill="rgb(255,255,255)" stroke-width="1" stroke="rgb(23,231,115)" />
	<circle cx="987.692" cy="569.66" r="0.5" fill="rgb(255,255,255)" stroke-width="1" stroke="rgb(23,231,115)" />
	<circle cx="989.14" cy="561.88" r="0.5" fill="rgb(255,255,255)" stroke-width="1" stroke="rgb(23,231,115)" />
	<circle cx="990.009" cy="534.356" r="0.5" fill="rgb(255,255,255)" stroke-width="1" stroke="rgb(23,231,115)" />
	<circle cx="990.588" cy="546.093" r="0.5" fill="rgb(255,255,255)" stroke-width="1" stroke="rgb(23,231,115)" />
	<circle cx="991.746" cy="490.912" r="0.5" fill="rgb(255,255,255)" stroke-width="1" stroke="rgb(23,231,115)" />
	<circle cx="992.326" cy="578.766" r="0.5" fill="rgb(255,255,255)" stroke-width="1" stroke="rgb(23,231,115)" />
	<circle cx="995.801" cy="574.895" r="0.5" fill="rgb(255,255,255)" stroke-width="1" stroke="rgb(23,231,115)" />
	<circle cx="999.855" cy="496.114" r="0.5" fill="rgb(255,255,255)" stroke-width="1" stroke="rgb(23,231,115)" />
	<rect x="963.655" y="531.626" width="5" height="5" fill="rgb(255,255,255)" stroke-width="2" stroke="rgb(23,231,115)" />
	<circle cx="883.145" cy="420.329" r="0.5" fill="rgb(255,255,255)" stroke-width="1" stroke="rgb(92,139,69)" />
	<circle cx="883.724" cy="429.413" r="0.5" fill="rgb(255,255,255)" stroke-width="1" stroke="rgb(92,139,69)" />
	<circle cx="901.39" cy="425.098" r="0.5" fill="rgb(255,255,255)" stroke-width="1" stroke="rgb(92,139,69)" />
	<circle cx="902.838" cy="426.723" r="0.5" fill="rgb(255,255,255)" stroke-width="1" stroke="rgb(92,139,69)" />
	<circle cx="917.029" cy="440.186" r="0.5" fill="rgb(255,255,255)" stroke-width="1" stroke="rgb(92,139,69)" />
	<circle cx="917.897" cy="451.639" r="0.5" fill="rgb(255,255,255)" stroke-width="1" stroke="rgb(92,139,69)" />
	<circle cx="920.793" cy="476.503" r="0.5" fill="rgb(255,255,255)" stroke-width="1" stroke="rgb(92,139,69)" />
	<circle cx="923.11" cy="436.439" r="0.5" fill="rgb(255,255,255)" stroke-width="1" stroke="rgb(92,139,69)" />
	<circle cx="926.006" cy="482.843" r="0.5" fill="rgb(255,255,255)" stroke-width="1" stroke="rgb(92,139,69)" />
	<circle cx="928.323" cy="475.608" r="0.5" fill="rgb(255,255,255)" stroke-width="1" stroke="rgb(92,139,69)" />
	<circle cx="928.902" cy="480.369" r="0.5" fill="rgb(255,255,255)" stroke-width="1" stroke="rgb(92,139,69)" />
	<circle cx="932.957" cy="425.188" r="0.5" fill="rgb(255,255,255)" stroke-width="1" stroke="rgb(92,139,69)" />
	<circle cx="934.405" cy="431.144" r="0.5" fill="rgb(255,255,255)" stroke-width="1" stroke="rgb(92,139,69)" />
	<circle cx="939.328" cy="455.753" r="0.5" fill="rgb(255,255,255)" stroke-width="1" stroke="rgb(92,139,69)" />
	<circle cx="939.907" cy="455.113" r="0.5" fill="rgb(255,255,255)" stroke-width="1" stroke="rgb(92,139,69)" />
	<circle cx="940.776" cy="418.017" r="0.5" fill="rgb(255,255,255)" stroke-width="1" stroke="rgb(92,139,69)" />
	<circle cx="941.355" cy="463.911" r="0.5" fill="rgb(255,255,255)" stroke-width="1" stroke="rgb(92,139,69)" />
	<circle cx="942.224" cy="454.735" r="0.5" fill="rgb(255,255,255)" stroke-width="1" stroke="rgb(92,139,69)" />
	<circle cx="943.962" cy="448.066" r="0.5" fill="rgb(255,255,255)" stroke-width="1" stroke="rgb(92,139,69)" />
	<circle cx="944.831" cy="417.799" r="0.5" fill="rgb(255,255,255)" stroke-width="1" stroke="rgb(92,139,69)" />
	<circle cx="946.279" cy="453.849" r="0.5" fill="rgb(255,255,255)" stroke-width="1" stroke="rgb(92,139,69)" />
	<circle cx="948.595" cy="453.637" r="0.5" fill="rgb(255,255,255)" stroke-width="1" stroke="rgb(92,139,69)" />
	<circle cx="953.229" cy="420.773" r="0.5" fill="rgb(255,255,255)" stroke-width="1" stroke="rgb(92,139,69)" />
	<circle cx="954.967" cy="437.429" r="0.5" fill="rgb(255,255,255)" stroke-width="1" stroke="rgb(92,139,69)" />
	<circle cx="957.863" cy="442.2" r="0.5" fill="rgb(255,255,255)" stroke-width="1" stroke="rgb(92,139,69)" />
	<circle cx="958.732" cy="484.746" r="0.5" fill="rgb(255,255,255)" stroke-width="1" stroke="rgb(92,139,69)" />
	<circle cx="959.311" cy="487.596" r="0.5" fill="rgb(255,255,255)" stroke-width="1" stroke="rgb(92,139,69)" />
	<circle cx="961.628" cy="447.559" r="0.5" fill="rgb(255,255,255)" stroke-width="1" stroke="rgb(92,139,69)" />
	<circle cx="964.524" cy="446.899" r="0.5" fill="rgb(255,255,255)" stroke-width="1" stroke="rgb(92,139,69)" />
	<circle cx="968.578" cy="415.734" r="0.5" fill="rgb(255,255,255)" stroke-width="1" stroke="rgb(92,139,69)" />
	<circle cx="971.764" cy="457.135" r="0.5" fill="rgb(255,255,255)" stroke-width="1" stroke="rgb(92,139,69)" />
	<circle cx="973.212" cy="428.962" r="0.5" fill="rgb(255,255,255)" stroke-width="1" stroke="rgb(92,139,69)" />
	<circle cx="975.529" cy="471.61" r="0.5" fill="rgb(255,255,255)" stroke-width="1" stroke="rgb(92,139,69)" />
	<circle cx="978.135" cy="417.335" r="0.5" fill="rgb(255,255,255)" stroke-width="1" stroke="rgb(92,139,69)" />
	<circle cx="979.004" cy="479.739" r="0.5" fill="rgb(255,255,255)" stroke-width="1" stroke="rgb(92,139,69)" />
	<circle cx="982.189" cy="448.615" r="0.5" fill="rgb(255,255,255)" stroke-width="1" stroke="rgb(92,139,69)" />
	<circle cx="987.113" cy="431.917" r="0.5" fill="rgb(255,255,255)" stroke-width="1" stroke="rgb(92,139,69)" />
	<circle cx="988.561" cy="425.031" r="0.5" fill="rgb(255,255,255)" stroke-width="1" stroke="rgb(92,139,69)" />
	<circle cx="993.194" cy="440.433" r="0.5" fill="rgb(255,255,255)" stroke-width="1" stroke="rgb(92,139,69)" />
	<circle cx="994.063" cy="444.917" r="0.5" fill="rgb(255,255,255)" stroke-width="1" stroke="rgb(92,139,69)" />
	<circle cx="994.932" cy="470.369" r="0.5" fill="rgb(255,255,255)" stroke-width="1" stroke="rgb(92,139,69)" />
	<circle cx="996.67" cy="426.487" r="0.5" fill="rgb(255,255,255)" stroke-width="1" stroke="rgb(92,139,69)" />
	<circle cx="997.538" cy="457.556" r="0.5" fill="rgb(255,255,255)" stroke-width="1" stroke="rgb(92,139,69)" />
	<circle cx="998.118" cy="422.128" r="0.5" fill="rgb(255,255,255)" stroke-width="1" stroke="rgb(92,139,69)" />
	<circle cx="998.986" cy="451.879" r="0.5" fill="rgb(255,255,255)" stroke-width="1" stroke="rgb(92,139,69)" />
	<rect x="953.229" y="446.209" width="5" height="5" fill="rgb(255,255,255)" stroke-width="2" stroke="rgb(92,139,69)" />
</svg>
