<?xml version="1.0" standalone="no" ?>
<!DOCTYPE svg PUBLIC "-//W3C//DTD SVG 1.1//EN" "http://www.w3.org/Graphics/SVG/1.1/DTD/svg11.dtd">
<svg width="1000px" height="1000px" xmlns="http://www.w3.org/2000/svg" version="1.1" >
	<circle cx="431.232" cy="727.287" r="0.5" fill="rgb(255,255,255)" stroke-width="1" stroke="rgb(69,0,0)" />
	<circle cx="432.679" cy="679.515" r="0.5" fill="rgb(255,255,255)" stroke-width="1" stroke="rgb(69,0,0)" />
	<circle cx="435.989" cy="802.594" r="0.5" fill="rgb(255,255,255)" stroke-width="1" stroke="rgb(69,0,0)" />
	<circle cx="437.747" cy="671.405" r="0.5" fill="rgb(255,255,255)" stroke-width="1" stroke="rgb(69,0,0)" />
	<circle cx="438.574" cy="714.161" r="0.5" fill="rgb(255,255,255)" stroke-width="1" stroke="rgb(69,0,0)" />
	<circle cx="439.918" cy="739.478" r="0.5" fill="rgb(255,255,255)" stroke-width="1" stroke="rgb(69,0,0)" />
	<circle cx="444.055" cy="746.405" r="0.5" fill="rgb(255,255,255)" stroke-width="1" stroke="rgb(69,0,0)" />
	<circle cx="444.572" cy="741.239" r="0.5" fill="rgb(255,255,255)" stroke-width="1" stroke="rgb(69,0,0)" />
	<circle cx="445.606" cy="752.695" r="0.5" fill="rgb(255,255,255)" stroke-width="1" stroke="rgb(69,0,0)" />
	<circle cx="446.536" cy="715.984" r="0.5" fill="rgb(255,255,255)" stroke-width="1" stroke="rgb(69,0,0)" />
	<circle cx="448.708" cy="767.815" r="0.5" fill="rgb(255,255,255)" stroke-width="1" stroke="rgb(69,0,0)" />
	<circle cx="452.845" cy="691.219" r="0.5" fill="rgb(255,255,255)" stroke-width="1" stroke="rgb(69,0,0)" />
	<circle cx="457.601" cy="735.959" r="0.5" fill="rgb(255,255,255)" stroke-width="1" stroke="rgb(69,0,0)" />
	<circle cx="459.98" cy="645.704" r="0.5" fill="rgb(255,255,255)" stroke-width="1" stroke="rgb(69,0,0)" />
	<circle cx="460.911" cy="778.306" r="0.5" fill="rgb(255,255,255)" stroke-width="1" stroke="rgb(69,0,0)" />
	<circle cx="463.289" cy="789.41" r="0.5" fill="rgb(255,255,255)" stroke-width="1" stroke="rgb(69,0,0)" />
	<circle cx="464.116" cy="767.764" r="0.5" fill="rgb(255,255,255)" stroke-width="1" stroke="rgb(69,0,0)" />
	<circle cx="472.803" cy="807.095" r="0.5" fill="rgb(255,255,255)" stroke-width="1" stroke="rgb(69,0,0)" />
	<circle cx="473.63" cy="805.262" r="0.5" fill="rgb(255,255,255)" stroke-width="1" stroke="rgb(69,0,0)" />
	<circle cx="478.18" cy="646.901" r="0.5" fill="rgb(255,255,255)" stroke-width="1" stroke="rgb(69,0,0)" />
	<circle cx="479.421" cy="698.059" r="0.5" fill="rgb(255,255,255)" stroke-width="1" stroke="rgb(69,0,0)" />
	<circle cx="482.006" cy="655.765" r="0.5" fill="rgb(255,255,255)" stroke-width="1" stroke="rgb(69,0,0)" />
	<circle cx="483.144" cy="783.635" r="0.5" fill="rgb(255,255,255)" stroke-width="1" stroke="rgb(69,0,0)" />
	<circle cx="484.385" cy="788.871" r="0.5" fill="rgb(255,255,255)" stroke-width="1" stroke="rgb(69,0,0)" />
	<circle cx="484.902" cy="799.579" r="0.5" fill="rgb(255,255,255)" stroke-width="1" stroke="rgb(69,0,0)" />
	<circle cx="491.313" cy="654.388" r="0.5" fill="rgb(255,255,255)" stroke-width="1" stroke="rgb(69,0,0)" />
	<circle cx="492.141" cy="694.092" r="0.5" fill="rgb(255,255,255)" stroke-width="1" stroke="rgb(69,0,0)" />
	<circle cx="493.899" cy="705.327" r="0.5" fill="rgb(255,255,255)" stroke-width="1" stroke="rgb(69,0,0)" />
	<circle cx="496.587" cy="785.78" r="0.5" fill="rgb(255,255,255)" stroke-width="1" stroke="rgb(69,0,0)" />
	<circle cx="498.139" cy="697.71" r="0.5" fill="rgb(255,255,255)" stroke-width="1" stroke="rgb(69,0,0)" />
	<circle cx="501.448" cy="741.877" r="0.5" fill="rgb(255,255,255)" stroke-width="1" stroke="rgb(69,0,0)" />
	<circle cx="502.482" cy="706.443" r="0.5" fill="rgb(255,255,255)" stroke-width="1" stroke="rgb(69,0,0)" />
	<circle cx="504.654" cy="635.926" r="0.5" fill="rgb(255,255,255)" stroke-width="1" stroke="rgb(69,0,0)" />
	<circle cx="506.825" cy="720.648" r="0.5" fill="rgb(255,255,255)" stroke-width="1" stroke="rgb(69,0,0)" />
	<circle cx="508.687" cy="747.175" r="0.5" fill="rgb(255,255,255)" stroke-width="1" stroke="rgb(69,0,0)" />
	<circle cx="510.031" cy="688.222" r="0.5" fill="rgb(255,255,255)" stroke-width="1" stroke="rgb(69,0,0)" />
	<circle cx="514.167" cy="814.017" r="0.5" fill="rgb(255,255,255)" stroke-width="1" stroke="rgb(69,0,0)" />
	<circle cx="516.546" cy="716.897" r="0.5" fill="rgb(255,255,255)" stroke-width="1" stroke="rgb(69,0,0)" />
	<circle cx="521.303" cy="645.938" r="0.5" fill="rgb(255,255,255)" stroke-width="1" stroke="rgb(69,0,0)" />
	<circle cx="521.716" cy="717.181" r="0.5" fill="rgb(255,255,255)" stroke-width="1" stroke="rgb(69,0,0)" />
	<circle cx="525.129" cy="717.566" r="0.5" fill="rgb(255,255,255)" stroke-width="1" stroke="rgb(69,0,0)" />
	<circle cx="529.058" cy="784.762" r="0.5" fill="rgb(255,255,255)" stroke-width="1" stroke="rgb(69,0,0)" />
	<circle cx="546.535" cy="782.373" r="0.5" fill="rgb(255,255,255)" stroke-width="1" stroke="rgb(69,0,0)" />
	<circle cx="548.5" cy="796.419" r="0.5" fill="rgb(255,255,255)" stroke-width="1" stroke="rgb(69,0,0)" />
	<circle cx="550.465" cy="728.561" r="0.5" fill="rgb(255,255,255)" stroke-width="1" stroke="rgb(69,0,0)" />
	<circle cx="553.153" cy="636.961" r="0.5" fill="rgb(255,255,255)" stroke-width="1" stroke="rgb(69,0,0)" />
	<circle cx="553.567" cy="631.342" r="0.5" fill="rgb(255,255,255)" stroke-width="1" stroke="rgb(69,0,0)" />
	<circle cx="558.841" cy="759.416" r="0.5" fill="rgb(255,255,255)" stroke-width="1" stroke="rgb(69,0,0)" />
	<circle cx="559.255" cy="807.526" r="0.5" fill="rgb(255,255,255)" stroke-width="1" stroke="rgb(69,0,0)" />
	<circle cx="560.909" cy="657.616" r="0.5" fill="rgb(255,255,255)" stroke-width="1" stroke="rgb(69,0,0)" />
	<circle cx="561.323" cy="714.552" r="0.5" fill="rgb(255,255,255)" stroke-width="1" stroke="rgb(69,0,0)" />
	<circle cx="561.633" cy="628.451" r="0.5" fill="rgb(255,255,255)" stroke-width="1" stroke="rgb(69,0,0)" />
	<circle cx="563.391" cy="642.856" r="0.5" fill="rgb(255,255,255)" stroke-width="1" stroke="rgb(69,0,0)" />
	<circle cx="567.114" cy="811.301" r="0.5" fill="rgb(255,255,255)" stroke-width="1" stroke="rgb(69,0,0)" />
	<circle cx="570.837" cy="745.758" r="0.5" fill="rgb(255,255,255)" stroke-width="1" stroke="rgb(69,0,0)" />
	<rect x="496.898" y="726.713" width="5" height="5" fill="rgb(255,255,255)" stroke-width="2" stroke="rgb(69,0,0)" />
	<circle cx="431.956" cy="905.509" r="0.5" fill="rgb(255,255,255)" stroke-width="1" stroke="rgb(139,162,208)" />
	<circle cx="433.61" cy="954.325" r="0.5" fill="rgb(255,255,255)" stroke-width="1" stroke="rgb(139,162,208)" />
	<circle cx="434.748" cy="920.498" r="0.5" fill="rgb(255,255,255)" stroke-width="1" stroke="rgb(139,162,208)" />
	<circle cx="435.265" cy="855.303" r="0.5" fill="rgb(255,255,255)" stroke-width="1" stroke="rgb(139,162,208)" />
	<circle cx="436.919" cy="877.668" r="0.5" fill="rgb(255,255,255)" stroke-width="1" stroke="rgb(139,162,208)" />
	<circle cx="440.849" cy="978.33" r="0.5" fill="rgb(255,255,255)" stroke-width="1" stroke="rgb(139,162,208)" />
	<circle cx="442.09" cy="847.519" r="0.5" fill="rgb(255,255,255)" stroke-width="1" stroke="rgb(139,162,208)" />
	<circle cx="442.917" cy="927.674" r="0.5" fill="rgb(255,255,255)" stroke-width="1" stroke="rgb(139,162,208)" />
	<circle cx="445.089" cy="923.076" r="0.5" fill="rgb(255,255,255)" stroke-width="1" stroke="rgb(139,162,208)" />
	<circle cx="446.019" cy="852.169" r="0.5" fill="rgb(255,255,255)" stroke-width="1" stroke="rgb(139,162,208)" />
	<circle cx="451.397" cy="844.556" r="0.5" fill="rgb(255,255,255)" stroke-width="1" stroke="rgb(139,162,208)" />
	<circle cx="454.603" cy="892.766" r="0.5" fill="rgb(255,255,255)" stroke-width="1" stroke="rgb(139,162,208)" />
	<circle cx="455.016" cy="848.017" r="0.5" fill="rgb(255,255,255)" stroke-width="1" stroke="rgb(139,162,208)" />
	<circle cx="456.464" cy="840.107" r="0.5" fill="rgb(255,255,255)" stroke-width="1" stroke="rgb(139,162,208)" />
	<circle cx="458.015" cy="895.887" r="0.5" fill="rgb(255,255,255)" stroke-width="1" stroke="rgb(139,162,208)" />
	<circle cx="461.221" cy="966.401" r="0.5" fill="rgb(255,255,255)" stroke-width="1" stroke="rgb(139,162,208)" />
	<circle cx="461.738" cy="815.386" r="0.5" fill="rgb(255,255,255)" stroke-width="1" stroke="rgb(139,162,208)" />
	<circle cx="466.185" cy="834.693" r="0.5" fill="rgb(255,255,255)" stroke-width="1" stroke="rgb(139,162,208)" />
	<circle cx="466.908" cy="863.369" r="0.5" fill="rgb(255,255,255)" stroke-width="1" stroke="rgb(139,162,208)" />
	<circle cx="475.802" cy="941.193" r="0.5" fill="rgb(255,255,255)" stroke-width="1" stroke="rgb(139,162,208)" />
	<circle cx="478.594" cy="844.551" r="0.5" fill="rgb(255,255,255)" stroke-width="1" stroke="rgb(139,162,208)" />
	<circle cx="479.111" cy="903.939" r="0.5" fill="rgb(255,255,255)" stroke-width="1" stroke="rgb(139,162,208)" />
	<circle cx="482.42" cy="834.309" r="0.5" fill="rgb(255,255,255)" stroke-width="1" stroke="rgb(139,162,208)" />
	<circle cx="485.419" cy="925.859" r="0.5" fill="rgb(255,255,255)" stroke-width="1" stroke="rgb(139,162,208)" />
	<circle cx="490.9" cy="852.888" r="0.5" fill="rgb(255,255,255)" stroke-width="1" stroke="rgb(139,162,208)" />
	<circle cx="492.658" cy="881.562" r="0.5" fill="rgb(255,255,255)" stroke-width="1" stroke="rgb(139,162,208)" />
	<circle cx="494.209" cy="985.715" r="0.5" fill="rgb(255,255,255)" stroke-width="1" stroke="rgb(139,162,208)" />
	<circle cx="504.033" cy="1000" r="0.5" fill="rgb(255,255,255)" stroke-width="1" stroke="rgb(139,162,208)" />
	<circle cx="506.308" cy="898.459" r="0.5" fill="rgb(255,255,255)" stroke-width="1" stroke="rgb(139,162,208)" />
	<circle cx="512.099" cy="935.358" r="0.5" fill="rgb(255,255,255)" stroke-width="1" stroke="rgb(139,162,208)" />
	<circle cx="515.925" cy="860.505" r="0.5" fill="rgb(255,255,255)" stroke-width="1" stroke="rgb(139,162,208)" />
	<circle cx="517.166" cy="945.305" r="0.5" fill="rgb(255,255,255)" stroke-width="1" stroke="rgb(139,162,208)" />
	<circle cx="518.407" cy="931.944" r="0.5" fill="rgb(255,255,255)" stroke-width="1" stroke="rgb(139,162,208)" />
	<circle cx="520.062" cy="920.615" r="0.5" fill="rgb(255,255,255)" stroke-width="1" stroke="rgb(139,162,208)" />
	<circle cx="520.682" cy="985.765" r="0.5" fill="rgb(255,255,255)" stroke-width="1" stroke="rgb(139,162,208)" />
	<circle cx="534.643" cy="907.774" r="0.5" fill="rgb(255,255,255)" stroke-width="1" stroke="rgb(139,162,208)" />
	<circle cx="545.604" cy="850.125" r="0.5" fill="rgb(255,255,255)" stroke-width="1" stroke="rgb(139,162,208)" />
	<circle cx="547.983" cy="870.712" r="0.5" fill="rgb(255,255,255)" stroke-width="1" stroke="rgb(139,162,208)" />
	<circle cx="552.74" cy="920.942" r="0.5" fill="rgb(255,255,255)" stroke-width="1" stroke="rgb(139,162,208)" />
	<circle cx="553.981" cy="919.545" r="0.5" fill="rgb(255,255,255)" stroke-width="1" stroke="rgb(139,162,208)" />
	<circle cx="557.083" cy="912.957" r="0.5" fill="rgb(255,255,255)" stroke-width="1" stroke="rgb(139,162,208)" />
	<circle cx="560.082" cy="882.053" r="0.5" fill="rgb(255,255,255)" stroke-width="1" stroke="rgb(139,162,208)" />
	<circle cx="562.46" cy="920.388" r="0.5" fill="rgb(255,255,255)" stroke-width="1" stroke="rgb(139,162,208)" />
	<rect x="486.66" y="899.435" width="5" height="5" fill="rgb(255,255,255)" stroke-width="2" stroke="rgb(139,162,208)" />
	<circle cx="434.024" cy="365.625" r="0.5" fill="rgb(255,255,255)" stroke-width="1" stroke="rgb(208,69,162)" />
	<circle cx="437.333" cy="312.524" r="0.5" fill="rgb(255,255,255)" stroke-width="1" stroke="rgb(208,69,162)" />
	<circle cx="438.987" cy="353.63" r="0.5" fill="rgb(255,255,255)" stroke-width="1" stroke="rgb(208,69,162)" />
	<circle cx="440.332" cy="247.86" r="0.5" fill="rgb(255,255,255)" stroke-width="1" stroke="rgb(208,69,162)" />
	<circle cx="441.676" cy="248.376" r="0.5" fill="rgb(255,255,255)" stroke-width="1" stroke="rgb(208,69,162)" />
	<circle cx="442.503" cy="383.018" r="0.5" fill="rgb(255,255,255)" stroke-width="1" stroke="rgb(208,69,162)" />
	<circle cx="443.227" cy="371.239" r="0.5" fill="rgb(255,255,255)" stroke-width="1" stroke="rgb(208,69,162)" />
	<circle cx="447.467" cy="337.751" r="0.5" fill="rgb(255,255,255)" stroke-width="1" stroke="rgb(208,69,162)" />
	<circle cx="450.052" cy="364.214" r="0.5" fill="rgb(255,255,255)" stroke-width="1" stroke="rgb(208,69,162)" />
	<circle cx="452.328" cy="388.422" r="0.5" fill="rgb(255,255,255)" stroke-width="1" stroke="rgb(208,69,162)" />
	<circle cx="453.258" cy="268.218" r="0.5" fill="rgb(255,255,255)" stroke-width="1" stroke="rgb(208,69,162)" />
	<circle cx="453.775" cy="268.988" r="0.5" fill="rgb(255,255,255)" stroke-width="1" stroke="rgb(208,69,162)" />
	<circle cx="468.046" cy="210.339" r="0.5" fill="rgb(255,255,255)" stroke-width="1" stroke="rgb(208,69,162)" />
	<circle cx="468.873" cy="257.336" r="0.5" fill="rgb(255,255,255)" stroke-width="1" stroke="rgb(208,69,162)" />
	<circle cx="474.044" cy="386.609" r="0.5" fill="rgb(255,255,255)" stroke-width="1" stroke="rgb(208,69,162)" />
	<circle cx="474.975" cy="281.121" r="0.5" fill="rgb(255,255,255)" stroke-width="1" stroke="rgb(208,69,162)" />
	<circle cx="480.766" cy="220.716" r="0.5" fill="rgb(255,255,255)" stroke-width="1" stroke="rgb(208,69,162)" />
	<circle cx="481.489" cy="352.256" r="0.5" fill="rgb(255,255,255)" stroke-width="1" stroke="rgb(208,69,162)" />
	<circle cx="483.971" cy="209.474" r="0.5" fill="rgb(255,255,255)" stroke-width="1" stroke="rgb(208,69,162)" />
	<circle cx="487.074" cy="265.826" r="0.5" fill="rgb(255,255,255)" stroke-width="1" stroke="rgb(208,69,162)" />
	<circle cx="489.142" cy="267.251" r="0.5" fill="rgb(255,255,255)" stroke-width="1" stroke="rgb(208,69,162)" />
	<circle cx="491.727" cy="357.519" r="0.5" fill="rgb(255,255,255)" stroke-width="1" stroke="rgb(208,69,162)" />
	<circle cx="494.726" cy="332.291" r="0.5" fill="rgb(255,255,255)" stroke-width="1" stroke="rgb(208,69,162)" />
	<circle cx="495.657" cy="328.828" r="0.5" fill="rgb(255,255,255)" stroke-width="1" stroke="rgb(208,69,162)" />
	<circle cx="496.174" cy="219.892" r="0.5" fill="rgb(255,255,255)" stroke-width="1" stroke="rgb(208,69,162)" />
	<circle cx="497.001" cy="404.621" r="0.5" fill="rgb(255,255,255)" stroke-width="1" stroke="rgb(208,69,162)" />
	<circle cx="499.173" cy="351.377" r="0.5" fill="rgb(255,255,255)" stroke-width="1" stroke="rgb(208,69,162)" />
	<circle cx="499.483" cy="376.26" r="0.5" fill="rgb(255,255,255)" stroke-width="1" stroke="rgb(208,69,162)" />
	<circle cx="500.517" cy="204.044" r="0.5" fill="rgb(255,255,255)" stroke-width="1" stroke="rgb(208,69,162)" />
	<circle cx="508.169" cy="230.981" r="0.5" fill="rgb(255,255,255)" stroke-width="1" stroke="rgb(208,69,162)" />
	<circle cx="509.204" cy="218.416" r="0.5" fill="rgb(255,255,255)" stroke-width="1" stroke="rgb(208,69,162)" />
	<circle cx="511.685" cy="294.411" r="0.5" fill="rgb(255,255,255)" stroke-width="1" stroke="rgb(208,69,162)" />
	<circle cx="512.616" cy="216.02" r="0.5" fill="rgb(255,255,255)" stroke-width="1" stroke="rgb(208,69,162)" />
	<circle cx="513.443" cy="214.47" r="0.5" fill="rgb(255,255,255)" stroke-width="1" stroke="rgb(208,69,162)" />
	<circle cx="514.684" cy="334.156" r="0.5" fill="rgb(255,255,255)" stroke-width="1" stroke="rgb(208,69,162)" />
	<circle cx="519.028" cy="378.325" r="0.5" fill="rgb(255,255,255)" stroke-width="1" stroke="rgb(208,69,162)" />
	<circle cx="522.13" cy="406.575" r="0.5" fill="rgb(255,255,255)" stroke-width="1" stroke="rgb(208,69,162)" />
	<circle cx="523.474" cy="389.907" r="0.5" fill="rgb(255,255,255)" stroke-width="1" stroke="rgb(208,69,162)" />
	<circle cx="525.749" cy="245.351" r="0.5" fill="rgb(255,255,255)" stroke-width="1" stroke="rgb(208,69,162)" />
	<circle cx="526.266" cy="272.746" r="0.5" fill="rgb(255,255,255)" stroke-width="1" stroke="rgb(208,69,162)" />
	<circle cx="526.783" cy="239.297" r="0.5" fill="rgb(255,255,255)" stroke-width="1" stroke="rgb(208,69,162)" />
	<circle cx="527.301" cy="320.884" r="0.5" fill="rgb(255,255,255)" stroke-width="1" stroke="rgb(208,69,162)" />
	<circle cx="528.335" cy="301.075" r="0.5" fill="rgb(255,255,255)" stroke-width="1" stroke="rgb(208,69,162)" />
	<circle cx="529.576" cy="252.751" r="0.5" fill="rgb(255,255,255)" stroke-width="1" stroke="rgb(208,69,162)" />
	<circle cx="533.092" cy="337.957" r="0.5" fill="rgb(255,255,255)" stroke-width="1" stroke="rgb(208,69,162)" />
	<circle cx="533.505" cy="202.214" r="0.5" fill="rgb(255,255,255)" stroke-width="1" stroke="rgb(208,69,162)" />
	<circle cx="534.022" cy="313.155" r="0.5" fill="rgb(255,255,255)" stroke-width="1" stroke="rgb(208,69,162)" />
	<circle cx="546.121" cy="384.192" r="0.5" fill="rgb(255,255,255)" stroke-width="1" stroke="rgb(208,69,162)" />
	<circle cx="547.155" cy="319.998" r="0.5" fill="rgb(255,255,255)" stroke-width="1" stroke="rgb(208,69,162)" />
	<circle cx="551.809" cy="288.508" r="0.5" fill="rgb(255,255,255)" stroke-width="1" stroke="rgb(208,69,162)" />
	<circle cx="554.498" cy="390.049" r="0.5" fill="rgb(255,255,255)" stroke-width="1" stroke="rgb(208,69,162)" />
	<circle cx="555.325" cy="224.717" r="0.5" fill="rgb(255,255,255)" stroke-width="1" stroke="rgb(208,69,162)" />
	<circle cx="556.256" cy="250.269" r="0.5" fill="rgb(255,255,255)" stroke-width="1" stroke="rgb(208,69,162)" />
	<circle cx="558.427" cy="313.1" r="0.5" fill="rgb(255,255,255)" stroke-width="1" stroke="rgb(208,69,162)" />
	<circle cx="562.047" cy="386.974" r="0.5" fill="rgb(255,255,255)" stroke-width="1" stroke="rgb(208,69,162)" />
	<circle cx="568.768" cy="293.336" r="0.5" fill="rgb(255,255,255)" stroke-width="1" stroke="rgb(208,69,162)" />
	<circle cx="569.182" cy="408.487" r="0.5" fill="rgb(255,255,255)" stroke-width="1" stroke="rgb(208,69,162)" />
	<circle cx="570.32" cy="388.968" r="0.5" fill="rgb(255,255,255)" stroke-width="1" stroke="rgb(208,69,162)" />
	<rect x="502.689" y="306.085" width="5" height="5" fill="rgb(255,255,255)" stroke-width="2" stroke="rgb(208,69,162)" />
	<circle cx="429.163" cy="560.573" r="0.5" fill="rgb(255,255,255)" stroke-width="1" stroke="rgb(23,231,115)" />
	<circle cx="432.266" cy="557.391" r="0.5" fill="rgb(255,255,255)" stroke-width="1" stroke="rgb(23,231,115)" />
	<circle cx="433.093" cy="450.797" r="0.5" fill="rgb(255,255,255)" stroke-width="1" stroke="rgb(23,231,115)" />
	<circle cx="434.334" cy="493.726" r="0.5" fill="rgb(255,255,255)" stroke-width="1" stroke="rgb(23,231,115)" />
	<circle cx="436.506" cy="461.05" r="0.5" fill="rgb(255,255,255)" stroke-width="1" stroke="rgb(23,231,115)" />
	<circle cx="438.16" cy="579.773" r="0.5" fill="rgb(255,255,255)" stroke-width="1" stroke="rgb(23,231,115)" />
	<circle cx="439.401" cy="615.183" r="0.5" fill="rgb(255,255,255)" stroke-width="1" stroke="rgb(23,231,115)" />
	<circle cx="449.535" cy="412.45" r="0.5" fill="rgb(255,255,255)" stroke-width="1" stroke="rgb(23,231,115)" />
	<circle cx="451.914" cy="529.869" r="0.5" fill="rgb(255,255,255)" stroke-width="1" stroke="rgb(23,231,115)" />
	<circle cx="454.189" cy="553.782" r="0.5" fill="rgb(255,255,255)" stroke-width="1" stroke="rgb(23,231,115)" />
	<circle cx="455.43" cy="601.687" r="0.5" fill="rgb(255,255,255)" stroke-width="1" stroke="rgb(23,231,115)" />
	<circle cx="455.947" cy="466.962" r="0.5" fill="rgb(255,255,255)" stroke-width="1" stroke="rgb(23,231,115)" />
	<circle cx="460.394" cy="607.972" r="0.5" fill="rgb(255,255,255)" stroke-width="1" stroke="rgb(23,231,115)" />
	<circle cx="462.152" cy="484.446" r="0.5" fill="rgb(255,255,255)" stroke-width="1" stroke="rgb(23,231,115)" />
	<circle cx="465.668" cy="526.882" r="0.5" fill="rgb(255,255,255)" stroke-width="1" stroke="rgb(23,231,115)" />
	<circle cx="467.632" cy="434.146" r="0.5" fill="rgb(255,255,255)" stroke-width="1" stroke="rgb(23,231,115)" />
	<circle cx="474.561" cy="428.437" r="0.5" fill="rgb(255,255,255)" stroke-width="1" stroke="rgb(23,231,115)" />
	<circle cx="475.388" cy="487.496" r="0.5" fill="rgb(255,255,255)" stroke-width="1" stroke="rgb(23,231,115)" />
	<circle cx="476.215" cy="546.558" r="0.5" fill="rgb(255,255,255)" stroke-width="1" stroke="rgb(23,231,115)" />
	<circle cx="479.835" cy="454.607" r="0.5" fill="rgb(255,255,255)" stroke-width="1" stroke="rgb(23,231,115)" />
	<circle cx="486.35" cy="518.185" r="0.5" fill="rgb(255,255,255)" stroke-width="1" stroke="rgb(23,231,115)" />
	<circle cx="487.797" cy="503.237" r="0.5" fill="rgb(255,255,255)" stroke-width="1" stroke="rgb(23,231,115)" />
	<circle cx="489.969" cy="467.823" r="0.5" fill="rgb(255,255,255)" stroke-width="1" stroke="rgb(23,231,115)" />
	<circle cx="497.415" cy="588.062" r="0.5" fill="rgb(255,255,255)" stroke-width="1" stroke="rgb(23,231,115)" />
	<circle cx="500" cy="535.224" r="0.5" fill="rgb(255,255,255)" stroke-width="1" stroke="rgb(23,231,115)" />
	<circle cx="501.965" cy="573.782" r="0.5" fill="rgb(255,255,255)" stroke-width="1" stroke="rgb(23,231,115)" />
	<circle cx="505.791" cy="489.135" r="0.5" fill="rgb(255,255,255)" stroke-width="1" stroke="rgb(23,231,115)" />
	<circle cx="524.198" cy="464.406" r="0.5" fill="rgb(255,255,255)" stroke-width="1" stroke="rgb(23,231,115)" />
	<circle cx="524.715" cy="474.494" r="0.5" fill="rgb(255,255,255)" stroke-width="1" stroke="rgb(23,231,115)" />
	<circle cx="527.818" cy="446.308" r="0.5" fill="rgb(255,255,255)" stroke-width="1" stroke="rgb(23,231,115)" />
	<circle cx="530.506" cy="515.201" r="0.5" fill="rgb(255,255,255)" stroke-width="1" stroke="rgb(23,231,115)" />
	<circle cx="532.161" cy="514.916" r="0.5" fill="rgb(255,255,255)" stroke-width="1" stroke="rgb(23,231,115)" />
	<circle cx="532.678" cy="509.629" r="0.5" fill="rgb(255,255,255)" stroke-width="1" stroke="rgb(23,231,115)" />
	<circle cx="547.569" cy="461.95" r="0.5" fill="rgb(255,255,255)" stroke-width="1" stroke="rgb(23,231,115)" />
	<circle cx="549.017" cy="561.374" r="0.5" fill="rgb(255,255,255)" stroke-width="1" stroke="rgb(23,231,115)" />
	<circle cx="551.395" cy="572.459" r="0.5" fill="rgb(255,255,255)" stroke-width="1" stroke="rgb(23,231,115)" />
	<circle cx="552.223" cy="503.828" r="0.5" fill="rgb(255,255,255)" stroke-width="1" stroke="rgb(23,231,115)" />
	<circle cx="562.874" cy="418.835" r="0.5" fill="rgb(255,255,255)" stroke-width="1" stroke="rgb(23,231,115)" />
	<circle cx="564.218" cy="508.159" r="0.5" fill="rgb(255,255,255)" stroke-width="1" stroke="rgb(23,231,115)" />
	<circle cx="564.735" cy="617.098" r="0.5" fill="rgb(255,255,255)" stroke-width="1" stroke="rgb(23,231,115)" />
	<circle cx="565.252" cy="560.988" r="0.5" fill="rgb(255,255,255)" stroke-width="1" stroke="rgb(23,231,115)" />
	<circle cx="565.873" cy="463.512" r="0.5" fill="rgb(255,255,255)" stroke-width="1" stroke="rgb(23,231,115)" />
	<circle cx="568.355" cy="537.129" r="0.5" fill="rgb(255,255,255)" stroke-width="1" stroke="rgb(23,231,115)" />
	<rect x="495.243" y="513.012" width="5" height="5" fill="rgb(255,255,255)" stroke-width="2" stroke="rgb(23,231,115)" />
	<circle cx="435.575" cy="105.422" r="0.5" fill="rgb(255,255,255)" stroke-width="1" stroke="rgb(92,139,69)" />
	<circle cx="441.263" cy="47.541" r="0.5" fill="rgb(255,255,255)" stroke-width="1" stroke="rgb(92,139,69)" />
	<circle cx="443.641" cy="155.166" r="0.5" fill="rgb(255,255,255)" stroke-width="1" stroke="rgb(92,139,69)" />
	<circle cx="447.054" cy="93.9174" r="0.5" fill="rgb(255,255,255)" stroke-width="1" stroke="rgb(92,139,69)" />
	<circle cx="447.881" cy="93.5997" r="0.5" fill="rgb(255,255,255)" stroke-width="1" stroke="rgb(92,139,69)" />
	<circle cx="448.294" cy="8.15088" r="0.5" fill="rgb(255,255,255)" stroke-width="1" stroke="rgb(92,139,69)" />
	<circle cx="449.122" cy="0" r="0.5" fill="rgb(255,255,255)" stroke-width="1" stroke="rgb(92,139,69)" />
	<circle cx="450.466" cy="140.815" r="0.5" fill="rgb(255,255,255)" stroke-width="1" stroke="rgb(92,139,69)" />
	<circle cx="450.88" cy="49.2823" r="0.5" fill="rgb(255,255,255)" stroke-width="1" stroke="rgb(92,139,69)" />
	<circle cx="457.188" cy="5.70032" r="0.5" fill="rgb(255,255,255)" stroke-width="1" stroke="rgb(92,139,69)" />
	<circle cx="459.049" cy="168.058" r="0.5" fill="rgb(255,255,255)" stroke-width="1" stroke="rgb(92,139,69)" />
	<circle cx="462.875" cy="182.32" r="0.5" fill="rgb(255,255,255)" stroke-width="1" stroke="rgb(92,139,69)" />
	<circle cx="463.703" cy="98.1847" r="0.5" fill="rgb(255,255,255)" stroke-width="1" stroke="rgb(92,139,69)" />
	<circle cx="464.84" cy="58.4741" r="0.5" fill="rgb(255,255,255)" stroke-width="1" stroke="rgb(92,139,69)" />
	<circle cx="465.254" cy="58.4455" r="0.5" fill="rgb(255,255,255)" stroke-width="1" stroke="rgb(92,139,69)" />
	<circle cx="468.46" cy="73.766" r="0.5" fill="rgb(255,255,255)" stroke-width="1" stroke="rgb(92,139,69)" />
	<circle cx="469.39" cy="182.771" r="0.5" fill="rgb(255,255,255)" stroke-width="1" stroke="rgb(92,139,69)" />
	<circle cx="473.217" cy="54.8971" r="0.5" fill="rgb(255,255,255)" stroke-width="1" stroke="rgb(92,139,69)" />
	<circle cx="476.733" cy="136.654" r="0.5" fill="rgb(255,255,255)" stroke-width="1" stroke="rgb(92,139,69)" />
	<circle cx="477.25" cy="58.4844" r="0.5" fill="rgb(255,255,255)" stroke-width="1" stroke="rgb(92,139,69)" />
	<circle cx="477.663" cy="110.048" r="0.5" fill="rgb(255,255,255)" stroke-width="1" stroke="rgb(92,139,69)" />
	<circle cx="481.179" cy="98.6882" r="0.5" fill="rgb(255,255,255)" stroke-width="1" stroke="rgb(92,139,69)" />
	<circle cx="485.833" cy="30.2723" r="0.5" fill="rgb(255,255,255)" stroke-width="1" stroke="rgb(92,139,69)" />
	<circle cx="488.625" cy="54.0032" r="0.5" fill="rgb(255,255,255)" stroke-width="1" stroke="rgb(92,139,69)" />
	<circle cx="493.278" cy="136.66" r="0.5" fill="rgb(255,255,255)" stroke-width="1" stroke="rgb(92,139,69)" />
	<circle cx="495.243" cy="62.1707" r="0.5" fill="rgb(255,255,255)" stroke-width="1" stroke="rgb(92,139,69)" />
	<circle cx="498.656" cy="25.5828" r="0.5" fill="rgb(255,255,255)" stroke-width="1" stroke="rgb(92,139,69)" />
	<circle cx="500.931" cy="111.516" r="0.5" fill="rgb(255,255,255)" stroke-width="1" stroke="rgb(92,139,69)" />
	<circle cx="502.896" cy="9.38586" r="0.5" fill="rgb(255,255,255)" stroke-width="1" stroke="rgb(92,139,69)" />
	<circle cx="503.619" cy="74.0469" r="0.5" fill="rgb(255,255,255)" stroke-width="1" stroke="rgb(92,139,69)" />
	<circle cx="505.274" cy="53.3021" r="0.5" fill="rgb(255,255,255)" stroke-width="1" stroke="rgb(92,139,69)" />
	<circle cx="510.548" cy="19.8403" r="0.5" fill="rgb(255,255,255)" stroke-width="1" stroke="rgb(92,139,69)" />
	<circle cx="511.168" cy="45.1604" r="0.5" fill="rgb(255,255,255)" stroke-width="1" stroke="rgb(92,139,69)" />
	<circle cx="513.03" cy="30.7393" r="0.5" fill="rgb(255,255,255)" stroke-width="1" stroke="rgb(92,139,69)" />
	<circle cx="513.754" cy="160.853" r="0.5" fill="rgb(255,255,255)" stroke-width="1" stroke="rgb(92,139,69)" />
	<circle cx="515.201" cy="115.388" r="0.5" fill="rgb(255,255,255)" stroke-width="1" stroke="rgb(92,139,69)" />
	<circle cx="517.58" cy="63.4625" r="0.5" fill="rgb(255,255,255)" stroke-width="1" stroke="rgb(92,139,69)" />
	<circle cx="517.994" cy="41.2494" r="0.5" fill="rgb(255,255,255)" stroke-width="1" stroke="rgb(92,139,69)" />
	<circle cx="519.441" cy="128.74" r="0.5" fill="rgb(255,255,255)" stroke-width="1" stroke="rgb(92,139,69)" />
	<circle cx="522.75" cy="146.192" r="0.5" fill="rgb(255,255,255)" stroke-width="1" stroke="rgb(92,139,69)" />
	<circle cx="530.093" cy="30.9441" r="0.5" fill="rgb(255,255,255)" stroke-width="1" stroke="rgb(92,139,69)" />
	<circle cx="545.087" cy="52.5732" r="0.5" fill="rgb(255,255,255)" stroke-width="1" stroke="rgb(92,139,69)" />
	<circle cx="549.43" cy="168.969" r="0.5" fill="rgb(255,255,255)" stroke-width="1" stroke="rgb(92,139,69)" />
	<circle cx="549.948" cy="194.537" r="0.5" fill="rgb(255,255,255)" stroke-width="1" stroke="rgb(92,139,69)" />
	<circle cx="550.982" cy="36.9781" r="0.5" fill="rgb(255,255,255)" stroke-width="1" stroke="rgb(92,139,69)" />
	<circle cx="554.911" cy="121.046" r="0.5" fill="rgb(255,255,255)" stroke-width="1" stroke="rgb(92,139,69)" />
	<circle cx="555.739" cy="55.6903" r="0.5" fill="rgb(255,255,255)" stroke-width="1" stroke="rgb(92,139,69)" />
	<circle cx="556.566" cy="30.4022" r="0.5" fill="rgb(255,255,255)" stroke-width="1" stroke="rgb(92,139,69)" />
	<circle cx="557.6" cy="36.5657" r="0.5" fill="rgb(255,255,255)" stroke-width="1" stroke="rgb(92,139,69)" />
	<circle cx="558.014" cy="65.8078" r="0.5" fill="rgb(255,255,255)" stroke-width="1" stroke="rgb(92,139,69)" />
	<circle cx="559.668" cy="88.5194" r="0.5" fill="rgb(255,255,255)" stroke-width="1" stroke="rgb(92,139,69)" />
	<circle cx="560.392" cy="176.475" r="0.5" fill="rgb(255,255,255)" stroke-width="1" stroke="rgb(92,139,69)" />
	<circle cx="563.805" cy="157.524" r="0.5" fill="rgb(255,255,255)" stroke-width="1" stroke="rgb(92,139,69)" />
	<circle cx="566.597" cy="69.061" r="0.5" fill="rgb(255,255,255)" stroke-width="1" stroke="rgb(92,139,69)" />
	<circle cx="567.527" cy="64.7585" r="0.5" fill="rgb(255,255,255)" stroke-width="1" stroke="rgb(92,139,69)" />
	<circle cx="567.941" cy="176.068" r="0.5" fill="rgb(255,255,255)" stroke-width="1" stroke="rgb(92,139,69)" />
	<circle cx="569.699" cy="96.9901" r="0.5" fill="rgb(255,255,255)" stroke-width="1" stroke="rgb(92,139,69)" />
	<rect x="503.413" y="86.173" width="5" height="5" fill="rgb(255,255,255)" stroke-width="2" stroke="rgb(92,139,69)" />
</svg>
